ffmpeg started on 2025-07-16 at 17:20:38
Report written to "D:\Convert\FFMetrics\reports\psnr_report-6.txt"
Log level: 32
Command line:
ffmpeg -hide_banner -nostdin -i "G:\\\xc0\xed\xe8\xec\xe5\\Shiza\\\xcb\xe5\xe3\xe5\xed\xe4\xe0 \xee \xc3\xf0\xe0\xed\xea\xf0\xe5\xf1\xf2\xe5\\[SHIZA Project] Grancrest Senki TV [19] [nDrOiDze & Lizaveta]_HEVC.mkv" -i "G:\\\xc0\xed\xe8\xec\xe5\\Shiza\\\xcb\xe5\xe3\xe5\xed\xe4\xe0 \xee \xc3\xf0\xe0\xed\xea\xf0\xe5\xf1\xf2\xe5\\[SHIZA Project] Grancrest Senki TV [19] [nDrOiDze & Lizaveta].mkv" -lavfi "[0:v]settb=AVTB,setpts=PTS-STARTPTS,format=pix_fmts=yuv420p10,fps=24000/1001,scale=1280:720:flags=bicubic[main];[1:v]settb=AVTB,setpts=PTS-STARTPTS,format=pix_fmts=yuv420p,fps=24000/1001,scale=1280:720:flags=bicubic[ref];[main][ref]psnr=eof_action=endall:stats_file='D\\:/Convert/FFMetrics/logs/psnr_logfile-6.txt'" -f null -
Input #0, matroska,webm, from 'G:\Аниме\Shiza\Легенда о Гранкресте\[SHIZA Project] Grancrest Senki TV [19] [nDrOiDze & Lizaveta]_HEVC.mkv':
  Metadata:
    ENCODER         : Lavf61.7.100
  Duration: 00:23:41.18, start: -0.021000, bitrate: 994 kb/s
  Stream #0:0(jpn): Video: hevc (Main 10), yuv420p10le(tv, bt709, progressive), 1280x720 [SAR 1:1 DAR 16:9], 23.98 fps, 23.98 tbr, 1k tbn (default)
      Metadata:
        title           : [SHIZA Project] Grancrest Senki TV [WEBRip]
        ENCODER         : Lavc61.19.100 libx265
        BPS             : 797038
        DURATION        : 00:23:40.043708333
        NUMBER_OF_FRAMES: 34047
        NUMBER_OF_BYTES : 141478706
        _STATISTICS_WRITING_APP: mkvpropedit v66.0.0 ('Josie') 64-bit
        _STATISTICS_WRITING_DATE_UTC: 2025-07-16 11:03:08
        _STATISTICS_TAGS: BPS DURATION NUMBER_OF_FRAMES NUMBER_OF_BYTES
  Stream #0:1(rus): Audio: aac (LC), 48000 Hz, stereo, fltp (default)
      Metadata:
        title           : nDrOiDze & Lizaveta
        ENCODER         : Lavc61.19.100 aac
        BPS             : 194310
        DURATION        : 00:23:41.162000000
        NUMBER_OF_FRAMES: 66618
        NUMBER_OF_BYTES : 34518370
        _STATISTICS_WRITING_APP: mkvpropedit v66.0.0 ('Josie') 64-bit
        _STATISTICS_WRITING_DATE_UTC: 2025-07-16 11:03:08
        _STATISTICS_TAGS: BPS DURATION NUMBER_OF_FRAMES NUMBER_OF_BYTES
Input #1, matroska,webm, from 'G:\Аниме\Shiza\Легенда о Гранкресте\[SHIZA Project] Grancrest Senki TV [19] [nDrOiDze & Lizaveta].mkv':
  Metadata:
    encoder         : libebml v1.3.4 + libmatroska v1.4.5
    creation_time   : 2018-05-28T11:46:57.000000Z
  Duration: 00:23:41.16, start: 0.000000, bitrate: 3042 kb/s
  Stream #1:0(jpn): Video: h264 (High), yuv420p(progressive), 1280x720 [SAR 1:1 DAR 16:9], 23.98 fps, 23.98 tbr, 1k tbn (default)
      Metadata:
        title           : [SHIZA Project] Grancrest Senki TV [WEBRip]
        BPS             : 2848284
        BPS-eng         : 2848284
        DURATION        : 00:23:40.045000000
        DURATION-eng    : 00:23:40.045000000
        NUMBER_OF_FRAMES: 34047
        NUMBER_OF_FRAMES-eng: 34047
        NUMBER_OF_BYTES : 505586551
        NUMBER_OF_BYTES-eng: 505586551
        _STATISTICS_WRITING_APP: mkvmerge v10.0.0 ('To Drown In You') 64bit
        _STATISTICS_WRITING_APP-eng: mkvmerge v10.0.0 ('To Drown In You') 64bit
        _STATISTICS_WRITING_DATE_UTC: 2018-05-28 11:46:57
        _STATISTICS_WRITING_DATE_UTC-eng: 2018-05-28 11:46:57
        _STATISTICS_TAGS: BPS DURATION NUMBER_OF_FRAMES NUMBER_OF_BYTES
        _STATISTICS_TAGS-eng: BPS DURATION NUMBER_OF_FRAMES NUMBER_OF_BYTES
  Stream #1:1(rus): Audio: aac (LC), 48000 Hz, stereo, fltp (default)
      Metadata:
        title           : nDrOiDze & Lizaveta
        BPS             : 194046
        BPS-eng         : 194046
        DURATION        : 00:23:41.162000000
        DURATION-eng    : 00:23:41.162000000
        NUMBER_OF_FRAMES: 66617
        NUMBER_OF_FRAMES-eng: 66617
        NUMBER_OF_BYTES : 34471383
        NUMBER_OF_BYTES-eng: 34471383
        _STATISTICS_WRITING_APP: mkvmerge v10.0.0 ('To Drown In You') 64bit
        _STATISTICS_WRITING_APP-eng: mkvmerge v10.0.0 ('To Drown In You') 64bit
        _STATISTICS_WRITING_DATE_UTC: 2018-05-28 11:46:57
        _STATISTICS_WRITING_DATE_UTC-eng: 2018-05-28 11:46:57
        _STATISTICS_TAGS: BPS DURATION NUMBER_OF_FRAMES NUMBER_OF_BYTES
        _STATISTICS_TAGS-eng: BPS DURATION NUMBER_OF_FRAMES NUMBER_OF_BYTES
Stream mapping:
  Stream #0:0 (hevc) -> settb:default
  Stream #1:0 (h264) -> settb:default
  psnr:default -> Stream #0:0 (wrapped_avframe)
  Stream #0:1 -> #0:1 (aac (native) -> pcm_s16le (native))
[swscaler @ 0000016d55ad6100] No accelerated colorspace conversion found from yuv420p to bgr48le.
[swscaler @ 0000016d55c88380] No accelerated colorspace conversion found from yuv420p to bgr48le.
[swscaler @ 0000016d55d35b40] No accelerated colorspace conversion found from yuv420p to bgr48le.
[swscaler @ 0000016d55e9c5c0] No accelerated colorspace conversion found from yuv420p to bgr48le.
[swscaler @ 0000016d55fedfc0] No accelerated colorspace conversion found from yuv420p to bgr48le.
[swscaler @ 0000016d560bca40] No accelerated colorspace conversion found from yuv420p to bgr48le.
[swscaler @ 0000016d5613bb80] No accelerated colorspace conversion found from yuv420p to bgr48le.
[swscaler @ 0000016d5619aec0] No accelerated colorspace conversion found from yuv420p to bgr48le.
[swscaler @ 0000016d561f6040] No accelerated colorspace conversion found from yuv420p to bgr48le.
[swscaler @ 0000016d56283040] No accelerated colorspace conversion found from yuv420p to bgr48le.
[swscaler @ 0000016d562de040] No accelerated colorspace conversion found from yuv420p to bgr48le.
[swscaler @ 0000016d562f8840] No accelerated colorspace conversion found from yuv420p to bgr48le.
[swscaler @ 0000016d563af040] No accelerated colorspace conversion found from yuv420p to bgr48le.
[swscaler @ 0000016d5643c840] No accelerated colorspace conversion found from yuv420p to bgr48le.
[swscaler @ 0000016d56498040] No accelerated colorspace conversion found from yuv420p to bgr48le.
[swscaler @ 0000016d564f6040] No accelerated colorspace conversion found from yuv420p to bgr48le.
Output #0, null, to 'pipe:':
  Metadata:
    encoder         : Lavf61.7.100
  Stream #0:0: Video: wrapped_avframe, yuv420p10le(tv, bt709, progressive), 1280x720 [SAR 1:1 DAR 16:9], q=2-31, 200 kb/s, 23.98 fps, 23.98 tbn
      Metadata:
        encoder         : Lavc61.19.100 wrapped_avframe
  Stream #0:1(rus): Audio: pcm_s16le, 48000 Hz, stereo, s16, 1536 kb/s (default)
      Metadata:
        title           : nDrOiDze & Lizaveta
        _STATISTICS_TAGS: BPS DURATION NUMBER_OF_FRAMES NUMBER_OF_BYTES
        BPS             : 194310
        DURATION        : 00:23:41.162000000
        NUMBER_OF_FRAMES: 66618
        NUMBER_OF_BYTES : 34518370
        _STATISTICS_WRITING_APP: mkvpropedit v66.0.0 ('Josie') 64-bit
        _STATISTICS_WRITING_DATE_UTC: 2025-07-16 11:03:08
        encoder         : Lavc61.19.100 pcm_s16le
frame=   80 fps=0.0 q=-0.0 size=N/A time=00:00:03.33 bitrate=N/A speed=6.31x    frame=  184 fps=178 q=-0.0 size=N/A time=00:00:07.67 bitrate=N/A speed= 7.4x    frame=  277 fps=178 q=-0.0 size=N/A time=00:00:11.55 bitrate=N/A speed=7.42x    frame=  380 fps=184 q=-0.0 size=N/A time=00:00:15.84 bitrate=N/A speed=7.67x    frame=  466 fps=180 q=-0.0 size=N/A time=00:00:19.43 bitrate=N/A speed=7.51x    frame=  576 fps=186 q=-0.0 size=N/A time=00:00:24.02 bitrate=N/A speed=7.76x    frame=  670 fps=185 q=-0.0 size=N/A time=00:00:27.94 bitrate=N/A speed=7.73x    frame=  771 fps=187 q=-0.0 size=N/A time=00:00:32.15 bitrate=N/A speed=7.79x    frame=  871 fps=187 q=-0.0 size=N/A time=00:00:36.32 bitrate=N/A speed=7.82x    frame=  963 fps=186 q=-0.0 size=N/A time=00:00:40.16 bitrate=N/A speed=7.78x    frame= 1052 fps=185 q=-0.0 size=N/A time=00:00:43.87 bitrate=N/A speed=7.73x    frame= 1172 fps=189 q=-0.0 size=N/A time=00:00:48.88 bitrate=N/A speed=7.89x    frame= 1265 fps=189 q=-0.0 size=N/A time=00:00:52.76 bitrate=N/A speed=7.87x    frame= 1374 fps=190 q=-0.0 size=N/A time=00:00:57.30 bitrate=N/A speed=7.92x    frame= 1476 fps=190 q=-0.0 size=N/A time=00:01:01.56 bitrate=N/A speed=7.94x    frame= 1577 fps=191 q=-0.0 size=N/A time=00:01:05.77 bitrate=N/A speed=7.96x    frame= 1681 fps=191 q=-0.0 size=N/A time=00:01:10.11 bitrate=N/A speed=7.97x    frame= 1781 fps=191 q=-0.0 size=N/A time=00:01:14.28 bitrate=N/A speed=7.99x    frame= 1885 fps=192 q=-0.0 size=N/A time=00:01:18.62 bitrate=N/A speed=   8x    frame= 1984 fps=192 q=-0.0 size=N/A time=00:01:22.74 bitrate=N/A speed=7.99x    frame= 2084 fps=192 q=-0.0 size=N/A time=00:01:26.92 bitrate=N/A speed=   8x    frame= 2178 fps=191 q=-0.0 size=N/A time=00:01:30.84 bitrate=N/A speed=7.98x    frame= 2270 fps=191 q=-0.0 size=N/A time=00:01:34.67 bitrate=N/A speed=7.96x    frame= 2372 fps=191 q=-0.0 size=N/A time=00:01:38.93 bitrate=N/A speed=7.97x    frame= 2464 fps=191 q=-0.0 size=N/A time=00:01:42.76 bitrate=N/A speed=7.95x    frame= 2571 fps=191 q=-0.0 size=N/A time=00:01:47.23 bitrate=N/A speed=7.98x    frame= 2675 fps=192 q=-0.0 size=N/A time=00:01:51.56 bitrate=N/A speed=7.99x    frame= 2771 fps=191 q=-0.0 size=N/A time=00:01:55.57 bitrate=N/A speed=7.99x    frame= 2873 fps=192 q=-0.0 size=N/A time=00:01:59.82 bitrate=N/A speed=7.99x    frame= 2966 fps=191 q=-0.0 size=N/A time=00:02:03.70 bitrate=N/A speed=7.98x    frame= 3075 fps=192 q=-0.0 size=N/A time=00:02:08.25 bitrate=N/A speed=   8x    frame= 3174 fps=192 q=-0.0 size=N/A time=00:02:12.38 bitrate=N/A speed=8.01x    frame= 3272 fps=192 q=-0.0 size=N/A time=00:02:16.46 bitrate=N/A speed=   8x    frame= 3375 fps=192 q=-0.0 size=N/A time=00:02:20.76 bitrate=N/A speed=8.01x    frame= 3475 fps=192 q=-0.0 size=N/A time=00:02:24.93 bitrate=N/A speed=8.01x    frame= 3576 fps=192 q=-0.0 size=N/A time=00:02:29.14 bitrate=N/A speed=8.02x    frame= 3670 fps=192 q=-0.0 size=N/A time=00:02:33.06 bitrate=N/A speed=8.01x    frame= 3765 fps=192 q=-0.0 size=N/A time=00:02:37.03 bitrate=N/A speed=   8x    frame= 3873 fps=192 q=-0.0 size=N/A time=00:02:41.53 bitrate=N/A speed=8.02x    frame= 3971 fps=192 q=-0.0 size=N/A time=00:02:45.62 bitrate=N/A speed=8.02x    frame= 4073 fps=192 q=-0.0 size=N/A time=00:02:49.87 bitrate=N/A speed=8.02x    frame= 4168 fps=192 q=-0.0 size=N/A time=00:02:53.84 bitrate=N/A speed=8.01x    frame= 4259 fps=192 q=-0.0 size=N/A time=00:02:57.63 bitrate=N/A speed=   8x    frame= 4360 fps=192 q=-0.0 size=N/A time=00:03:01.84 bitrate=N/A speed=   8x    frame= 4459 fps=192 q=-0.0 size=N/A time=00:03:05.97 bitrate=N/A speed=   8x    frame= 4554 fps=192 q=-0.0 size=N/A time=00:03:09.93 bitrate=N/A speed=7.99x    frame= 4652 fps=192 q=-0.0 size=N/A time=00:03:14.02 bitrate=N/A speed=7.99x    frame= 4743 fps=191 q=-0.0 size=N/A time=00:03:17.82 bitrate=N/A speed=7.98x    frame= 4836 fps=191 q=-0.0 size=N/A time=00:03:21.70 bitrate=N/A speed=7.97x    frame= 4935 fps=191 q=-0.0 size=N/A time=00:03:25.83 bitrate=N/A speed=7.97x    frame= 5020 fps=191 q=-0.0 size=N/A time=00:03:29.37 bitrate=N/A speed=7.95x    frame= 5110 fps=190 q=-0.0 size=N/A time=00:03:33.12 bitrate=N/A speed=7.94x    frame= 5205 fps=190 q=-0.0 size=N/A time=00:03:37.09 bitrate=N/A speed=7.93x    frame= 5292 fps=190 q=-0.0 size=N/A time=00:03:40.72 bitrate=N/A speed=7.92x    frame= 5395 fps=190 q=-0.0 size=N/A time=00:03:45.01 bitrate=N/A speed=7.93x    frame= 5495 fps=190 q=-0.0 size=N/A time=00:03:49.18 bitrate=N/A speed=7.93x    frame= 5588 fps=190 q=-0.0 size=N/A time=00:03:53.06 bitrate=N/A speed=7.92x    frame= 5692 fps=190 q=-0.0 size=N/A time=00:03:57.40 bitrate=N/A speed=7.93x    frame= 5786 fps=190 q=-0.0 size=N/A time=00:04:01.32 bitrate=N/A speed=7.92x    frame= 5894 fps=190 q=-0.0 size=N/A time=00:04:05.82 bitrate=N/A speed=7.93x    frame= 5995 fps=190 q=-0.0 size=N/A time=00:04:10.04 bitrate=N/A speed=7.93x    frame= 6096 fps=190 q=-0.0 size=N/A time=00:04:14.25 bitrate=N/A speed=7.93x    frame= 6190 fps=190 q=-0.0 size=N/A time=00:04:18.17 bitrate=N/A speed=7.93x    frame= 6296 fps=190 q=-0.0 size=N/A time=00:04:22.59 bitrate=N/A speed=7.94x    frame= 6391 fps=190 q=-0.0 size=N/A time=00:04:26.55 bitrate=N/A speed=7.94x    frame= 6499 fps=191 q=-0.0 size=N/A time=00:04:31.06 bitrate=N/A speed=7.95x    frame= 6600 fps=191 q=-0.0 size=N/A time=00:04:35.27 bitrate=N/A speed=7.95x    frame= 6701 fps=191 q=-0.0 size=N/A time=00:04:39.48 bitrate=N/A speed=7.95x    frame= 6795 fps=191 q=-0.0 size=N/A time=00:04:43.40 bitrate=N/A speed=7.95x    frame= 6898 fps=191 q=-0.0 size=N/A time=00:04:47.70 bitrate=N/A speed=7.96x    frame= 6995 fps=191 q=-0.0 size=N/A time=00:04:51.74 bitrate=N/A speed=7.95x    frame= 7095 fps=191 q=-0.0 size=N/A time=00:04:55.92 bitrate=N/A speed=7.95x    frame= 7182 fps=190 q=-0.0 size=N/A time=00:04:59.54 bitrate=N/A speed=7.94x    frame= 7298 fps=191 q=-0.0 size=N/A time=00:05:04.38 bitrate=N/A speed=7.96x    frame= 7389 fps=191 q=-0.0 size=N/A time=00:05:08.18 bitrate=N/A speed=7.95x    frame= 7490 fps=191 q=-0.0 size=N/A time=00:05:12.39 bitrate=N/A speed=7.96x    frame= 7584 fps=191 q=-0.0 size=N/A time=00:05:16.31 bitrate=N/A speed=7.95x    frame= 7691 fps=191 q=-0.0 size=N/A time=00:05:20.77 bitrate=N/A speed=7.96x    frame= 7794 fps=191 q=-0.0 size=N/A time=00:05:25.07 bitrate=N/A speed=7.97x    frame= 7896 fps=191 q=-0.0 size=N/A time=00:05:29.32 bitrate=N/A speed=7.97x    frame= 7991 fps=191 q=-0.0 size=N/A time=00:05:33.29 bitrate=N/A speed=7.97x    frame= 8096 fps=191 q=-0.0 size=N/A time=00:05:37.67 bitrate=N/A speed=7.97x    frame= 8199 fps=191 q=-0.0 size=N/A time=00:05:41.96 bitrate=N/A speed=7.98x    frame= 8298 fps=191 q=-0.0 size=N/A time=00:05:46.09 bitrate=N/A speed=7.98x    frame= 8395 fps=191 q=-0.0 size=N/A time=00:05:50.14 bitrate=N/A speed=7.98x    frame= 8493 fps=191 q=-0.0 size=N/A time=00:05:54.22 bitrate=N/A speed=7.98x    frame= 8595 fps=191 q=-0.0 size=N/A time=00:05:58.48 bitrate=N/A speed=7.98x    frame= 8696 fps=191 q=-0.0 size=N/A time=00:06:02.69 bitrate=N/A speed=7.98x    frame= 8796 fps=191 q=-0.0 size=N/A time=00:06:06.86 bitrate=N/A speed=7.98x    frame= 8900 fps=191 q=-0.0 size=N/A time=00:06:11.20 bitrate=N/A speed=7.99x    frame= 8999 fps=192 q=-0.0 size=N/A time=00:06:15.33 bitrate=N/A speed=7.99x    frame= 9104 fps=192 q=-0.0 size=N/A time=00:06:19.71 bitrate=N/A speed=7.99x    frame= 9203 fps=192 q=-0.0 size=N/A time=00:06:23.84 bitrate=N/A speed=7.99x    frame= 9303 fps=192 q=-0.0 size=N/A time=00:06:28.01 bitrate=N/A speed=   8x    frame= 9387 fps=191 q=-0.0 size=N/A time=00:06:31.51 bitrate=N/A speed=7.98x    frame= 9500 fps=192 q=-0.0 size=N/A time=00:06:36.22 bitrate=N/A speed=7.99x    frame= 9593 fps=192 q=-0.0 size=N/A time=00:06:40.10 bitrate=N/A speed=7.99x    frame= 9695 fps=192 q=-0.0 size=N/A time=00:06:44.36 bitrate=N/A speed=7.99x    frame= 9794 fps=192 q=-0.0 size=N/A time=00:06:48.49 bitrate=N/A speed=7.99x    frame= 9887 fps=191 q=-0.0 size=N/A time=00:06:52.37 bitrate=N/A speed=7.99x    frame= 9974 fps=191 q=-0.0 size=N/A time=00:06:55.99 bitrate=N/A speed=7.98x    frame=10075 fps=191 q=-0.0 size=N/A time=00:07:00.21 bitrate=N/A speed=7.98x    frame=10174 fps=191 q=-0.0 size=N/A time=00:07:04.34 bitrate=N/A speed=7.98x    frame=10261 fps=191 q=-0.0 size=N/A time=00:07:07.96 bitrate=N/A speed=7.97x    frame=10366 fps=191 q=-0.0 size=N/A time=00:07:12.34 bitrate=N/A speed=7.98x    frame=10465 fps=191 q=-0.0 size=N/A time=00:07:16.47 bitrate=N/A speed=7.98x    frame=10576 fps=191 q=-0.0 size=N/A time=00:07:21.10 bitrate=N/A speed=7.98x    frame=10668 fps=191 q=-0.0 size=N/A time=00:07:24.94 bitrate=N/A speed=7.98x    frame=10770 fps=191 q=-0.0 size=N/A time=00:07:29.19 bitrate=N/A speed=7.98x    frame=10873 fps=191 q=-0.0 size=N/A time=00:07:33.49 bitrate=N/A speed=7.98x    frame=10976 fps=191 q=-0.0 size=N/A time=00:07:37.79 bitrate=N/A speed=7.99x    frame=11074 fps=191 q=-0.0 size=N/A time=00:07:41.87 bitrate=N/A speed=7.99x    frame=11174 fps=191 q=-0.0 size=N/A time=00:07:46.04 bitrate=N/A speed=7.99x    frame=11268 fps=191 q=-0.0 size=N/A time=00:07:49.96 bitrate=N/A speed=7.98x    frame=11369 fps=191 q=-0.0 size=N/A time=00:07:54.18 bitrate=N/A speed=7.99x    frame=11459 fps=191 q=-0.0 size=N/A time=00:07:57.93 bitrate=N/A speed=7.98x    frame=11556 fps=191 q=-0.0 size=N/A time=00:08:01.98 bitrate=N/A speed=7.98x    frame=11648 fps=191 q=-0.0 size=N/A time=00:08:05.81 bitrate=N/A speed=7.97x    frame=11745 fps=191 q=-0.0 size=N/A time=00:08:09.86 bitrate=N/A speed=7.97x    frame=11848 fps=191 q=-0.0 size=N/A time=00:08:14.16 bitrate=N/A speed=7.97x    frame=11944 fps=191 q=-0.0 size=N/A time=00:08:18.16 bitrate=N/A speed=7.97x    frame=12041 fps=191 q=-0.0 size=N/A time=00:08:22.21 bitrate=N/A speed=7.97x    frame=12136 fps=191 q=-0.0 size=N/A time=00:08:26.17 bitrate=N/A speed=7.97x    frame=12235 fps=191 q=-0.0 size=N/A time=00:08:30.30 bitrate=N/A speed=7.97x    frame=12333 fps=191 q=-0.0 size=N/A time=00:08:34.38 bitrate=N/A speed=7.97x    frame=12436 fps=191 q=-0.0 size=N/A time=00:08:38.68 bitrate=N/A speed=7.97x    frame=12525 fps=191 q=-0.0 size=N/A time=00:08:42.39 bitrate=N/A speed=7.97x    frame=12637 fps=191 q=-0.0 size=N/A time=00:08:47.06 bitrate=N/A speed=7.98x    frame=12735 fps=191 q=-0.0 size=N/A time=00:08:51.15 bitrate=N/A speed=7.98x    frame=12833 fps=191 q=-0.0 size=N/A time=00:08:55.24 bitrate=N/A speed=7.97x    frame=12933 fps=191 q=-0.0 size=N/A time=00:08:59.41 bitrate=N/A speed=7.98x    frame=13026 fps=191 q=-0.0 size=N/A time=00:09:03.29 bitrate=N/A speed=7.97x    frame=13132 fps=191 q=-0.0 size=N/A time=00:09:07.71 bitrate=N/A speed=7.98x    frame=13232 fps=191 q=-0.0 size=N/A time=00:09:11.88 bitrate=N/A speed=7.98x    frame=13336 fps=191 q=-0.0 size=N/A time=00:09:16.22 bitrate=N/A speed=7.98x    frame=13442 fps=191 q=-0.0 size=N/A time=00:09:20.64 bitrate=N/A speed=7.98x    frame=13536 fps=191 q=-0.0 size=N/A time=00:09:24.56 bitrate=N/A speed=7.98x    frame=13637 fps=191 q=-0.0 size=N/A time=00:09:28.77 bitrate=N/A speed=7.98x    frame=13743 fps=192 q=-0.0 size=N/A time=00:09:33.19 bitrate=N/A speed=7.99x    frame=13844 fps=192 q=-0.0 size=N/A time=00:09:37.41 bitrate=N/A speed=7.99x    frame=13935 fps=191 q=-0.0 size=N/A time=00:09:41.20 bitrate=N/A speed=7.99x    frame=14040 fps=192 q=-0.0 size=N/A time=00:09:45.58 bitrate=N/A speed=7.99x    frame=14138 fps=192 q=-0.0 size=N/A time=00:09:49.67 bitrate=N/A speed=7.99x    frame=14224 fps=191 q=-0.0 size=N/A time=00:09:53.25 bitrate=N/A speed=7.98x    frame=14338 fps=192 q=-0.0 size=N/A time=00:09:58.01 bitrate=N/A speed=7.99x    frame=14439 fps=192 q=-0.0 size=N/A time=00:10:02.22 bitrate=N/A speed=7.99x    frame=14533 fps=192 q=-0.0 size=N/A time=00:10:06.14 bitrate=N/A speed=7.99x    frame=14634 fps=192 q=-0.0 size=N/A time=00:10:10.35 bitrate=N/A speed=7.99x    frame=14739 fps=192 q=-0.0 size=N/A time=00:10:14.73 bitrate=N/A speed=7.99x    frame=14832 fps=192 q=-0.0 size=N/A time=00:10:18.61 bitrate=N/A speed=7.99x    frame=14939 fps=192 q=-0.0 size=N/A time=00:10:23.08 bitrate=N/A speed=7.99x    frame=15038 fps=192 q=-0.0 size=N/A time=00:10:27.20 bitrate=N/A speed=7.99x    frame=15139 fps=192 q=-0.0 size=N/A time=00:10:31.42 bitrate=N/A speed=   8x    frame=15228 fps=192 q=-0.0 size=N/A time=00:10:35.13 bitrate=N/A speed=7.99x    frame=15336 fps=192 q=-0.0 size=N/A time=00:10:39.63 bitrate=N/A speed=7.99x    frame=15434 fps=192 q=-0.0 size=N/A time=00:10:43.72 bitrate=N/A speed=7.99x    frame=15525 fps=192 q=-0.0 size=N/A time=00:10:47.52 bitrate=N/A speed=7.99x    frame=15628 fps=192 q=-0.0 size=N/A time=00:10:51.81 bitrate=N/A speed=7.99x    frame=15728 fps=192 q=-0.0 size=N/A time=00:10:55.98 bitrate=N/A speed=7.99x    frame=15821 fps=192 q=-0.0 size=N/A time=00:10:59.86 bitrate=N/A speed=7.99x    frame=15927 fps=192 q=-0.0 size=N/A time=00:11:04.28 bitrate=N/A speed=7.99x    frame=16026 fps=192 q=-0.0 size=N/A time=00:11:08.41 bitrate=N/A speed=7.99x    frame=16121 fps=192 q=-0.0 size=N/A time=00:11:12.38 bitrate=N/A speed=7.99x    frame=16223 fps=192 q=-0.0 size=N/A time=00:11:16.63 bitrate=N/A speed=7.99x    frame=16322 fps=192 q=-0.0 size=N/A time=00:11:20.76 bitrate=N/A speed=7.99x    frame=16415 fps=192 q=-0.0 size=N/A time=00:11:24.64 bitrate=N/A speed=7.99x    frame=16523 fps=192 q=-0.0 size=N/A time=00:11:29.14 bitrate=N/A speed=   8x    frame=16621 fps=192 q=-0.0 size=N/A time=00:11:33.23 bitrate=N/A speed=   8x    frame=16724 fps=192 q=-0.0 size=N/A time=00:11:37.53 bitrate=N/A speed=   8x    frame=16821 fps=192 q=-0.0 size=N/A time=00:11:41.57 bitrate=N/A speed=   8x    frame=16923 fps=192 q=-0.0 size=N/A time=00:11:45.83 bitrate=N/A speed=   8x    frame=17020 fps=192 q=-0.0 size=N/A time=00:11:49.87 bitrate=N/A speed=   8x    frame=17122 fps=192 q=-0.0 size=N/A time=00:11:54.13 bitrate=N/A speed=   8x    frame=17225 fps=192 q=-0.0 size=N/A time=00:11:58.42 bitrate=N/A speed=   8x    frame=17320 fps=192 q=-0.0 size=N/A time=00:12:02.38 bitrate=N/A speed=   8x    frame=17420 fps=192 q=-0.0 size=N/A time=00:12:06.55 bitrate=N/A speed=   8x    frame=17518 fps=192 q=-0.0 size=N/A time=00:12:10.64 bitrate=N/A speed=   8x    frame=17617 fps=192 q=-0.0 size=N/A time=00:12:14.77 bitrate=N/A speed=   8x    frame=17715 fps=192 q=-0.0 size=N/A time=00:12:18.86 bitrate=N/A speed=   8x    frame=17817 fps=192 q=-0.0 size=N/A time=00:12:23.11 bitrate=N/A speed=   8x    frame=17916 fps=192 q=-0.0 size=N/A time=00:12:27.24 bitrate=N/A speed=   8x    frame=18014 fps=192 q=-0.0 size=N/A time=00:12:31.33 bitrate=N/A speed=   8x    frame=18105 fps=192 q=-0.0 size=N/A time=00:12:35.12 bitrate=N/A speed=   8x    frame=18214 fps=192 q=-0.0 size=N/A time=00:12:39.67 bitrate=N/A speed=   8x    frame=18313 fps=192 q=-0.0 size=N/A time=00:12:43.80 bitrate=N/A speed=   8x    frame=18414 fps=192 q=-0.0 size=N/A time=00:12:48.01 bitrate=N/A speed=   8x    frame=18511 fps=192 q=-0.0 size=N/A time=00:12:52.06 bitrate=N/A speed=   8x    frame=18610 fps=192 q=-0.0 size=N/A time=00:12:56.19 bitrate=N/A speed=   8x    frame=18716 fps=192 q=-0.0 size=N/A time=00:13:00.61 bitrate=N/A speed=   8x    frame=18818 fps=192 q=-0.0 size=N/A time=00:13:04.86 bitrate=N/A speed=   8x    frame=18916 fps=192 q=-0.0 size=N/A time=00:13:08.95 bitrate=N/A speed=   8x    frame=19018 fps=192 q=-0.0 size=N/A time=00:13:13.20 bitrate=N/A speed=8.01x    frame=19115 fps=192 q=-0.0 size=N/A time=00:13:17.25 bitrate=N/A speed=8.01x    frame=19220 fps=192 q=-0.0 size=N/A time=00:13:21.63 bitrate=N/A speed=8.01x    frame=19321 fps=192 q=-0.0 size=N/A time=00:13:25.84 bitrate=N/A speed=8.01x    frame=19423 fps=192 q=-0.0 size=N/A time=00:13:30.10 bitrate=N/A speed=8.01x    frame=19524 fps=192 q=-0.0 size=N/A time=00:13:34.31 bitrate=N/A speed=8.01x    frame=19621 fps=192 q=-0.0 size=N/A time=00:13:38.35 bitrate=N/A speed=8.01x    frame=19724 fps=192 q=-0.0 size=N/A time=00:13:42.65 bitrate=N/A speed=8.01x    frame=19821 fps=192 q=-0.0 size=N/A time=00:13:46.70 bitrate=N/A speed=8.01x    frame=19915 fps=192 q=-0.0 size=N/A time=00:13:50.62 bitrate=N/A speed=8.01x    frame=20013 fps=192 q=-0.0 size=N/A time=00:13:54.70 bitrate=N/A speed=8.01x    frame=20108 fps=192 q=-0.0 size=N/A time=00:13:58.67 bitrate=N/A speed=8.01x    frame=20209 fps=192 q=-0.0 size=N/A time=00:14:02.88 bitrate=N/A speed=8.01x    frame=20300 fps=192 q=-0.0 size=N/A time=00:14:06.67 bitrate=N/A speed=   8x    frame=20409 fps=192 q=-0.0 size=N/A time=00:14:11.22 bitrate=N/A speed=8.01x    frame=20509 fps=192 q=-0.0 size=N/A time=00:14:15.39 bitrate=N/A speed=8.01x    frame=20613 fps=192 q=-0.0 size=N/A time=00:14:19.73 bitrate=N/A speed=8.01x    frame=20713 fps=192 q=-0.0 size=N/A time=00:14:23.90 bitrate=N/A speed=8.01x    frame=20815 fps=192 q=-0.0 size=N/A time=00:14:28.15 bitrate=N/A speed=8.01x    frame=20913 fps=192 q=-0.0 size=N/A time=00:14:32.24 bitrate=N/A speed=8.01x    frame=21014 fps=192 q=-0.0 size=N/A time=00:14:36.45 bitrate=N/A speed=8.01x    frame=21106 fps=192 q=-0.0 size=N/A time=00:14:40.29 bitrate=N/A speed=8.01x    frame=21214 fps=192 q=-0.0 size=N/A time=00:14:44.80 bitrate=N/A speed=8.01x    frame=21310 fps=192 q=-0.0 size=N/A time=00:14:48.80 bitrate=N/A speed=8.01x    frame=21412 fps=192 q=-0.0 size=N/A time=00:14:53.05 bitrate=N/A speed=8.01x    frame=21509 fps=192 q=-0.0 size=N/A time=00:14:57.10 bitrate=N/A speed=8.01x    frame=21604 fps=192 q=-0.0 size=N/A time=00:15:01.06 bitrate=N/A speed=8.01x    frame=21702 fps=192 q=-0.0 size=N/A time=00:15:05.15 bitrate=N/A speed=8.01x    frame=21797 fps=192 q=-0.0 size=N/A time=00:15:09.11 bitrate=N/A speed=8.01x    frame=21899 fps=192 q=-0.0 size=N/A time=00:15:13.37 bitrate=N/A speed=8.01x    frame=21990 fps=192 q=-0.0 size=N/A time=00:15:17.16 bitrate=N/A speed=8.01x    frame=22100 fps=192 q=-0.0 size=N/A time=00:15:21.75 bitrate=N/A speed=8.01x    frame=22198 fps=192 q=-0.0 size=N/A time=00:15:25.84 bitrate=N/A speed=8.01x    frame=22299 fps=192 q=-0.0 size=N/A time=00:15:30.05 bitrate=N/A speed=8.01x    frame=22400 fps=192 q=-0.0 size=N/A time=00:15:34.26 bitrate=N/A speed=8.01x    frame=22492 fps=192 q=-0.0 size=N/A time=00:15:38.10 bitrate=N/A speed=8.01x    frame=22588 fps=192 q=-0.0 size=N/A time=00:15:42.10 bitrate=N/A speed=8.01x    frame=22685 fps=192 q=-0.0 size=N/A time=00:15:46.15 bitrate=N/A speed=8.01x    frame=22784 fps=192 q=-0.0 size=N/A time=00:15:50.28 bitrate=N/A speed=8.01x    frame=22879 fps=192 q=-0.0 size=N/A time=00:15:54.24 bitrate=N/A speed=8.01x    frame=22966 fps=192 q=-0.0 size=N/A time=00:15:57.87 bitrate=N/A speed=   8x    frame=23052 fps=192 q=-0.0 size=N/A time=00:16:01.46 bitrate=N/A speed=   8x    frame=23146 fps=192 q=-0.0 size=N/A time=00:16:05.38 bitrate=N/A speed=   8x    frame=23231 fps=192 q=-0.0 size=N/A time=00:16:08.92 bitrate=N/A speed=7.99x    frame=23348 fps=192 q=-0.0 size=N/A time=00:16:13.80 bitrate=N/A speed=   8x    frame=23443 fps=192 q=-0.0 size=N/A time=00:16:17.76 bitrate=N/A speed=   8x    frame=23537 fps=192 q=-0.0 size=N/A time=00:16:21.68 bitrate=N/A speed=7.99x    frame=23627 fps=192 q=-0.0 size=N/A time=00:16:25.44 bitrate=N/A speed=7.99x    frame=23726 fps=192 q=-0.0 size=N/A time=00:16:29.57 bitrate=N/A speed=7.99x    frame=23826 fps=192 q=-0.0 size=N/A time=00:16:33.74 bitrate=N/A speed=7.99x    frame=23924 fps=192 q=-0.0 size=N/A time=00:16:37.83 bitrate=N/A speed=7.99x    frame=24005 fps=191 q=-0.0 size=N/A time=00:16:41.20 bitrate=N/A speed=7.99x    frame=24114 fps=192 q=-0.0 size=N/A time=00:16:45.75 bitrate=N/A speed=7.99x    frame=24212 fps=192 q=-0.0 size=N/A time=00:16:49.84 bitrate=N/A speed=7.99x    frame=24305 fps=191 q=-0.0 size=N/A time=00:16:53.72 bitrate=N/A speed=7.99x    frame=24400 fps=191 q=-0.0 size=N/A time=00:16:57.68 bitrate=N/A speed=7.99x    frame=24499 fps=191 q=-0.0 size=N/A time=00:17:01.81 bitrate=N/A speed=7.99x    frame=24598 fps=191 q=-0.0 size=N/A time=00:17:05.94 bitrate=N/A speed=7.99x    frame=24697 fps=191 q=-0.0 size=N/A time=00:17:10.07 bitrate=N/A speed=7.99x    frame=24796 fps=191 q=-0.0 size=N/A time=00:17:14.19 bitrate=N/A speed=7.98x    frame=24894 fps=191 q=-0.0 size=N/A time=00:17:18.28 bitrate=N/A speed=7.98x    frame=24992 fps=191 q=-0.0 size=N/A time=00:17:22.37 bitrate=N/A speed=7.98x    frame=25090 fps=191 q=-0.0 size=N/A time=00:17:26.46 bitrate=N/A speed=7.98x    frame=25187 fps=191 q=-0.0 size=N/A time=00:17:30.50 bitrate=N/A speed=7.98x    frame=25286 fps=191 q=-0.0 size=N/A time=00:17:34.63 bitrate=N/A speed=7.98x    frame=25380 fps=191 q=-0.0 size=N/A time=00:17:38.55 bitrate=N/A speed=7.98x    frame=25479 fps=191 q=-0.0 size=N/A time=00:17:42.68 bitrate=N/A speed=7.98x    frame=25579 fps=191 q=-0.0 size=N/A time=00:17:46.85 bitrate=N/A speed=7.98x    frame=25678 fps=191 q=-0.0 size=N/A time=00:17:50.98 bitrate=N/A speed=7.98x    frame=25784 fps=191 q=-0.0 size=N/A time=00:17:55.40 bitrate=N/A speed=7.98x    frame=25880 fps=191 q=-0.0 size=N/A time=00:17:59.41 bitrate=N/A speed=7.98x    frame=25979 fps=191 q=-0.0 size=N/A time=00:18:03.54 bitrate=N/A speed=7.98x    frame=26076 fps=191 q=-0.0 size=N/A time=00:18:07.58 bitrate=N/A speed=7.98x    frame=26172 fps=191 q=-0.0 size=N/A time=00:18:11.59 bitrate=N/A speed=7.98x    frame=26277 fps=191 q=-0.0 size=N/A time=00:18:15.96 bitrate=N/A speed=7.98x    frame=26374 fps=191 q=-0.0 size=N/A time=00:18:20.01 bitrate=N/A speed=7.98x    frame=26476 fps=191 q=-0.0 size=N/A time=00:18:24.26 bitrate=N/A speed=7.99x    frame=26571 fps=191 q=-0.0 size=N/A time=00:18:28.23 bitrate=N/A speed=7.98x    frame=26672 fps=191 q=-0.0 size=N/A time=00:18:32.44 bitrate=N/A speed=7.98x    frame=26776 fps=191 q=-0.0 size=N/A time=00:18:36.78 bitrate=N/A speed=7.99x    frame=26870 fps=191 q=-0.0 size=N/A time=00:18:40.70 bitrate=N/A speed=7.98x    frame=26971 fps=191 q=-0.0 size=N/A time=00:18:44.91 bitrate=N/A speed=7.98x    frame=27067 fps=191 q=-0.0 size=N/A time=00:18:48.91 bitrate=N/A speed=7.98x    frame=27163 fps=191 q=-0.0 size=N/A time=00:18:52.92 bitrate=N/A speed=7.98x    frame=27264 fps=191 q=-0.0 size=N/A time=00:18:57.13 bitrate=N/A speed=7.98x    frame=27367 fps=191 q=-0.0 size=N/A time=00:19:01.43 bitrate=N/A speed=7.99x    frame=27467 fps=191 q=-0.0 size=N/A time=00:19:05.60 bitrate=N/A speed=7.99x    frame=27568 fps=191 q=-0.0 size=N/A time=00:19:09.81 bitrate=N/A speed=7.99x    frame=27665 fps=191 q=-0.0 size=N/A time=00:19:13.86 bitrate=N/A speed=7.99x    frame=27766 fps=191 q=-0.0 size=N/A time=00:19:18.07 bitrate=N/A speed=7.99x    frame=27865 fps=191 q=-0.0 size=N/A time=00:19:22.20 bitrate=N/A speed=7.99x    frame=27966 fps=191 q=-0.0 size=N/A time=00:19:26.41 bitrate=N/A speed=7.99x    frame=28065 fps=192 q=-0.0 size=N/A time=00:19:30.54 bitrate=N/A speed=7.99x    frame=28169 fps=192 q=-0.0 size=N/A time=00:19:34.88 bitrate=N/A speed=7.99x    frame=28270 fps=192 q=-0.0 size=N/A time=00:19:39.09 bitrate=N/A speed=7.99x    frame=28372 fps=192 q=-0.0 size=N/A time=00:19:43.34 bitrate=N/A speed=7.99x    frame=28477 fps=192 q=-0.0 size=N/A time=00:19:47.72 bitrate=N/A speed=7.99x    frame=28579 fps=192 q=-0.0 size=N/A time=00:19:51.98 bitrate=N/A speed=7.99x    frame=28681 fps=192 q=-0.0 size=N/A time=00:19:56.23 bitrate=N/A speed=7.99x    frame=28786 fps=192 q=-0.0 size=N/A time=00:20:00.61 bitrate=N/A speed=   8x    frame=28884 fps=192 q=-0.0 size=N/A time=00:20:04.70 bitrate=N/A speed=   8x    frame=28985 fps=192 q=-0.0 size=N/A time=00:20:08.91 bitrate=N/A speed=   8x    frame=29082 fps=192 q=-0.0 size=N/A time=00:20:12.96 bitrate=N/A speed=   8x    frame=29181 fps=192 q=-0.0 size=N/A time=00:20:17.09 bitrate=N/A speed=   8x    frame=29273 fps=192 q=-0.0 size=N/A time=00:20:20.92 bitrate=N/A speed=7.99x    frame=29370 fps=192 q=-0.0 size=N/A time=00:20:24.97 bitrate=N/A speed=7.99x    frame=29470 fps=192 q=-0.0 size=N/A time=00:20:29.14 bitrate=N/A speed=7.99x    frame=29573 fps=192 q=-0.0 size=N/A time=00:20:33.44 bitrate=N/A speed=7.99x    frame=29658 fps=192 q=-0.0 size=N/A time=00:20:36.98 bitrate=N/A speed=7.99x    frame=29776 fps=192 q=-0.0 size=N/A time=00:20:41.90 bitrate=N/A speed=   8x    frame=29876 fps=192 q=-0.0 size=N/A time=00:20:46.07 bitrate=N/A speed=   8x    frame=29973 fps=192 q=-0.0 size=N/A time=00:20:50.12 bitrate=N/A speed=   8x    frame=30080 fps=192 q=-0.0 size=N/A time=00:20:54.58 bitrate=N/A speed=   8x    frame=30184 fps=192 q=-0.0 size=N/A time=00:20:58.92 bitrate=N/A speed=   8x    frame=30287 fps=192 q=-0.0 size=N/A time=00:21:03.22 bitrate=N/A speed=   8x    frame=30387 fps=192 q=-0.0 size=N/A time=00:21:07.39 bitrate=N/A speed=   8x    frame=30483 fps=192 q=-0.0 size=N/A time=00:21:11.39 bitrate=N/A speed=   8x    frame=30589 fps=192 q=-0.0 size=N/A time=00:21:15.81 bitrate=N/A speed=   8x    frame=30693 fps=192 q=-0.0 size=N/A time=00:21:20.15 bitrate=N/A speed=   8x    frame=30795 fps=192 q=-0.0 size=N/A time=00:21:24.40 bitrate=N/A speed=   8x    frame=30895 fps=192 q=-0.0 size=N/A time=00:21:28.62 bitrate=N/A speed=   8x    frame=30989 fps=192 q=-0.0 size=N/A time=00:21:32.49 bitrate=N/A speed=   8x    frame=31094 fps=192 q=-0.0 size=N/A time=00:21:36.87 bitrate=N/A speed=   8x    frame=31192 fps=192 q=-0.0 size=N/A time=00:21:40.96 bitrate=N/A speed=   8x    frame=31299 fps=192 q=-0.0 size=N/A time=00:21:45.42 bitrate=N/A speed=8.01x    frame=31384 fps=192 q=-0.0 size=N/A time=00:21:48.97 bitrate=N/A speed=   8x    frame=31502 fps=192 q=-0.0 size=N/A time=00:21:53.89 bitrate=N/A speed=8.01x    frame=31591 fps=192 q=-0.0 size=N/A time=00:21:57.60 bitrate=N/A speed=8.01x    frame=31707 fps=192 q=-0.0 size=N/A time=00:22:02.44 bitrate=N/A speed=8.01x    frame=31809 fps=192 q=-0.0 size=N/A time=00:22:06.70 bitrate=N/A speed=8.01x    frame=31912 fps=192 q=-0.0 size=N/A time=00:22:10.99 bitrate=N/A speed=8.01x    frame=32010 fps=192 q=-0.0 size=N/A time=00:22:15.08 bitrate=N/A speed=8.01x    frame=32113 fps=192 q=-0.0 size=N/A time=00:22:19.37 bitrate=N/A speed=8.01x    frame=32214 fps=192 q=-0.0 size=N/A time=00:22:23.59 bitrate=N/A speed=8.01x    frame=32313 fps=192 q=-0.0 size=N/A time=00:22:27.72 bitrate=N/A speed=8.01x    frame=32414 fps=192 q=-0.0 size=N/A time=00:22:31.93 bitrate=N/A speed=8.01x    frame=32513 fps=192 q=-0.0 size=N/A time=00:22:36.06 bitrate=N/A speed=8.01x    frame=32607 fps=192 q=-0.0 size=N/A time=00:22:39.98 bitrate=N/A speed=8.01x    frame=32705 fps=192 q=-0.0 size=N/A time=00:22:44.07 bitrate=N/A speed=8.01x    frame=32801 fps=192 q=-0.0 size=N/A time=00:22:48.07 bitrate=N/A speed=8.01x    frame=32900 fps=192 q=-0.0 size=N/A time=00:22:52.20 bitrate=N/A speed=8.01x    frame=32986 fps=192 q=-0.0 size=N/A time=00:22:55.79 bitrate=N/A speed=8.01x    frame=33097 fps=192 q=-0.0 size=N/A time=00:23:00.42 bitrate=N/A speed=8.01x    frame=33200 fps=192 q=-0.0 size=N/A time=00:23:04.71 bitrate=N/A speed=8.01x    frame=33298 fps=192 q=-0.0 size=N/A time=00:23:08.80 bitrate=N/A speed=8.01x    frame=33395 fps=192 q=-0.0 size=N/A time=00:23:12.84 bitrate=N/A speed=8.01x    frame=33495 fps=192 q=-0.0 size=N/A time=00:23:17.02 bitrate=N/A speed=8.01x    frame=33574 fps=192 q=-0.0 size=N/A time=00:23:20.31 bitrate=N/A speed=8.01x    frame=33681 fps=192 q=-0.0 size=N/A time=00:23:24.77 bitrate=N/A speed=8.01x    frame=33784 fps=192 q=-0.0 size=N/A time=00:23:29.07 bitrate=N/A speed=8.01x    frame=33884 fps=192 q=-0.0 size=N/A time=00:23:33.24 bitrate=N/A speed=8.01x    frame=33977 fps=192 q=-0.0 size=N/A time=00:23:37.12 bitrate=N/A speed=8.01x    [Parsed_psnr_10 @ 0000016d4b8035c0] PSNR y:44.455068 u:48.736442 v:48.818996 average:45.479495 min:37.745284 max:inf
[out#0/null @ 0000016d498b1c40] video:14630KiB audio:266472KiB subtitle:0KiB other streams:0KiB global headers:0KiB muxing overhead: unknown
frame=34047 fps=192 q=-0.0 Lsize=N/A time=00:23:40.04 bitrate=N/A speed=8.01x    
